<svg xmlns="http://www.w3.org/2000/svg" width="1024" height="1024" viewBox="0 0 1024 1024">
  <defs>
    <linearGradient id="bg" x1="0" y1="0" x2="1" y2="1">
      <stop offset="0" stop-color="#1e293b"/>
      <stop offset="1" stop-color="#0f172a"/>
    </linearGradient>
  </defs>
  <!-- rounded app tile -->
  <rect x="64" y="64" width="896" height="896" rx="200" fill="url(#bg)"/>
  <!-- calendar card -->
  <rect x="192" y="240" width="640" height="576" rx="72" fill="#f8fafc"/>
  <!-- header band -->
  <path d="M192 312 a72 72 0 0 1 72 -72 h496 a72 72 0 0 1 72 72 v88 H192 Z" fill="#3b82f6"/>
  <!-- binder rings -->
  <rect x="308" y="176" width="56" height="152" rx="28" fill="#e2e8f0"/>
  <rect x="660" y="176" width="56" height="152" rx="28" fill="#e2e8f0"/>
  <!-- grid: two event blocks + dots -->
  <rect x="256" y="472" width="248" height="120" rx="28" fill="#3b82f6"/>
  <rect x="536" y="620" width="232" height="120" rx="28" fill="#22a06b"/>
  <circle cx="300" cy="680" r="26" fill="#cbd5e1"/>
  <circle cx="392" cy="680" r="26" fill="#cbd5e1"/>
  <circle cx="580" cy="524" r="26" fill="#cbd5e1"/>
  <circle cx="672" cy="524" r="26" fill="#cbd5e1"/>
</svg>
